<svg width="28" height="28" viewBox="0 0 28 28" fill="none" xmlns="http://www.w3.org/2000/svg">
<path fill-rule="evenodd" clip-rule="evenodd" d="M10.2501 5.86864C10.6224 5.51175 11.1182 5.3125 11.634 5.3125H16.4821C17.0068 5.3125 17.5105 5.51873 17.8846 5.88672L21.7151 9.65476C22.0973 10.0307 22.3125 10.5444 22.3125 11.0805V23.5C22.3125 24.6046 21.4171 25.5 20.3125 25.5H7.6875C6.58293 25.5 5.6875 24.6046 5.6875 23.5V11.0952C5.6875 10.55 5.91002 10.0285 6.30357 9.65131L10.2501 5.86864Z" stroke="#868686"/>
<path d="M17.1216 20.9945H12.5521V17.8473H16.1298C16.3254 17.8473 16.493 17.6881 16.493 17.4952C16.493 17.3023 16.3254 17.1431 16.1298 17.1431H12.5521V15.6954C12.5521 14.8983 12.7716 14.2715 13.1893 13.8686C13.544 13.5265 14.0137 13.3415 14.6291 13.3415C15.1372 13.3415 15.5303 13.4468 15.8601 13.6219C16.1904 13.7974 16.4599 14.0444 16.7191 14.3318L16.719 14.3319L16.7215 14.3343C16.7924 14.4027 16.8825 14.4616 17.0172 14.4616C17.223 14.4616 17.3934 14.3177 17.3934 14.1096C17.3934 14.0075 17.3486 13.9085 17.2906 13.8385L17.2906 13.8385L17.2897 13.8374C16.708 13.1744 15.9382 12.6499 14.6422 12.6499C13.8349 12.6499 13.1434 12.9181 12.6501 13.3939C12.09 13.9341 11.7866 14.7539 11.7866 15.708V17.1431H10.9753C10.7798 17.1431 10.6121 17.3023 10.6121 17.4952C10.6121 17.6881 10.7798 17.8473 10.9753 17.8473H11.7866V21.0296L10.8078 21.2474L10.8078 21.2474L10.807 21.2476C10.7476 21.2619 10.6982 21.2882 10.6636 21.3278C10.6285 21.368 10.6121 21.418 10.6121 21.4724C10.6121 21.5898 10.7145 21.686 10.8318 21.686H17.1216C17.3143 21.686 17.4848 21.5422 17.4848 21.3466C17.4848 21.1536 17.3171 20.9945 17.1216 20.9945Z" fill="#868686" stroke="#868686" stroke-width="0.1"/>
<path d="M13.1869 2.75689C13.1869 2.2594 13.6061 1.85 14.1309 1.85C14.6556 1.85 15.0748 2.2594 15.0748 2.75689V7.28789C15.0748 7.78538 14.6556 8.19478 14.1309 8.19478C13.6061 8.19478 13.1869 7.78538 13.1869 7.28789V2.75689Z" fill="white" stroke="black" stroke-width="0.2"/>
<path d="M14.1309 1.75C13.5543 1.75 13.0869 2.2008 13.0869 2.75689V7.28789C13.0869 7.84398 13.5543 8.29478 14.1309 8.29478C14.7074 8.29478 15.1748 7.84398 15.1748 7.28789V2.75689C15.1748 2.2008 14.7074 1.75 14.1309 1.75Z" stroke="#868686"/>
</svg>
