<svg width="268" height="405" viewBox="0 0 268 405" fill="none" xmlns="http://www.w3.org/2000/svg">
<path d="M30.077 267.349C4.19346 321.08 46.6689 363.715 71.1421 378.316C97.6893 394.307 160.988 413.942 201.804 364.549C242.62 315.156 254.484 254.973 255.313 231.055C258.493 213.951 252.244 171.817 201.804 140.113C151.364 108.408 102.529 146.37 84.4157 169.314C77.0876 179.605 55.9605 213.618 30.077 267.349Z" fill="#F8F8F8"/>
<path d="M49.9059 92.4341C54.0782 136.888 71.0566 167.774 93.1279 188.857" stroke="#42A71E" stroke-width="1.2" stroke-linecap="round"/>
<path d="M72.3516 163.768C67.2666 169.417 54.178 177.012 42.5037 162.203C55.6625 148.696 67.8851 157.618 72.3516 163.768Z" stroke="#42A71E" stroke-width="1.2" stroke-linejoin="round"/>
<path d="M63.5137 146.029C59.7622 139.419 56.6942 124.6 74.4346 118.207C83.0885 134.96 70.7598 143.736 63.5137 146.029Z" stroke="#42A71E" stroke-width="1.2" stroke-linejoin="round"/>
<path d="M94.1378 188.612C87.8616 184.325 78.5893 172.366 91.71 158.822C106.85 170.062 99.637 183.365 94.1378 188.612Z" stroke="#42A71E" stroke-width="1.2" stroke-linejoin="round"/>
<path d="M53.0878 114.929C46.4212 118.579 31.5576 121.42 25.4357 103.584C42.32 95.1868 50.9056 107.648 53.0878 114.929Z" stroke="#42A71E" stroke-width="1.2" stroke-linejoin="round"/>
<path d="M172.616 376.46C170.258 379.473 168.822 383.238 168.822 387.327C168.822 397.065 176.816 405 186.624 405C196.432 405 204.425 397.065 204.425 387.327C204.425 383.238 203.016 379.499 200.659 376.514C202.556 376.514 203.64 376.514 203.748 376.514C203.775 376.514 207.216 376.406 207.216 371.779V351.578C208.381 351.82 209.6 351.955 210.82 351.955C220.493 351.955 228.377 344.127 228.377 334.524C228.377 324.921 220.493 317.093 210.82 317.093C209.573 317.093 208.381 317.227 207.216 317.47V266.28C207.162 265.957 207.135 264.935 207.65 264.505C208.11 264.128 208.95 264.263 209.6 264.478L229.597 286.455C229.732 286.589 229.895 286.67 230.084 286.67C230.274 286.67 230.437 286.616 230.572 286.482L267.096 252.508C267.232 252.373 267.313 252.212 267.313 252.023C267.313 251.835 267.259 251.674 267.123 251.539L207.487 191.123C207.406 191.043 207.297 190.989 207.189 190.962L180.88 182.973C180.826 182.946 175.84 181.198 172.616 185.098L145.196 177.216C145.141 177.19 145.06 177.19 145.006 177.19L144.843 -19.153C148.989 -19.3413 152.376 -21.3857 154.679 -25.0709C156.874 -28.5947 157.415 -32.9524 156.196 -37.0142C154.733 -41.9099 151.509 -44.4115 149.043 -45.6758C146.632 -46.9132 143.732 -47.2897 140.86 -46.7787C129.751 -44.7612 128.776 -33.7594 128.776 -33.6518C128.749 -33.329 128.993 -33.0331 129.318 -33.0062C129.616 -33.0062 129.941 -33.2214 129.968 -33.5442C129.968 -33.6518 130.862 -43.739 141.077 -45.5951C143.678 -46.0793 146.307 -45.7027 148.501 -44.5998C150.75 -43.47 153.703 -41.1567 155.058 -36.6645C156.169 -32.9255 155.681 -28.9175 153.649 -25.6627C151.427 -22.0851 148.257 -20.2828 144.22 -20.2828C144.058 -20.2828 143.895 -20.229 143.787 -20.0945C143.678 -19.9869 143.624 -19.8255 143.624 -19.6641L143.787 177.27C143.732 177.27 143.678 177.27 143.597 177.297L117.288 185.313L115.743 183.376C115.635 183.269 112.844 180.444 106.775 183.753L84.0963 191.984C84.015 192.011 83.9338 192.065 83.8525 192.146L22.997 251.862C22.8887 251.97 22.8074 252.158 22.8074 252.319C22.8074 252.508 22.8887 252.669 23.0241 252.804L58.4102 286.401C58.5457 286.508 58.7083 286.589 58.8709 286.589C59.0605 286.562 59.2231 286.508 59.3586 286.374L80.7636 263.913C81.3868 263.752 82.5519 263.617 83.0396 263.994C83.148 264.074 83.2564 264.209 83.2564 264.559C83.2564 266.791 82.8499 370.273 82.8499 371.241C82.8499 371.349 82.6603 373.716 84.1234 375.249C84.9092 376.056 85.993 376.487 87.3477 376.487C87.4561 376.487 87.5645 376.487 87.6729 376.487C90.4095 376.352 127.746 376.406 160.586 376.433C160.586 376.433 161.29 376.54 161.263 375.734C161.236 375.007 160.586 375.115 160.586 375.115C127.719 375.061 90.4366 375.034 87.6187 375.169C86.5078 375.196 85.6678 374.953 85.1259 374.362C84.0692 373.286 84.2047 371.403 84.2047 371.322C84.2047 370.273 84.6111 266.791 84.6111 264.559C84.6111 263.671 84.2047 263.187 83.8525 262.918C83.3377 262.541 82.6603 262.407 82.01 262.407C81.143 262.407 80.3843 262.622 80.2217 262.649C80.1134 262.676 80.005 262.756 79.9237 262.837L58.8438 284.948L24.4331 252.319L84.6924 193.195L107.317 184.963C112.492 182.166 114.66 184.21 114.714 184.264L119.591 190.209C120.079 190.854 140.86 218.103 142.134 220.202C142.703 221.143 143.434 221.439 143.949 221.547C145.304 221.789 146.577 220.82 146.821 220.605C147.065 220.309 170.448 190.343 173.347 186.282C175.948 182.65 180.202 184.183 180.419 184.264L206.62 192.226L265.66 252.023L230.139 285.056L210.468 263.456C210.386 263.375 210.305 263.321 210.197 263.267C208.706 262.756 207.541 262.81 206.755 263.483C205.59 264.478 205.834 266.28 205.861 266.388V317.819C198.6 319.944 193.262 326.615 193.262 334.524C193.262 342.432 198.6 349.103 205.861 351.228V371.779C205.861 374.98 203.938 375.169 203.748 375.169C203.287 375.169 201.797 375.169 199.494 375.169C196.243 371.779 191.691 369.654 186.597 369.654C181.557 369.654 176.978 371.752 173.754 375.142L172.616 376.46ZM145.9 219.637C145.683 219.825 144.87 220.309 144.22 220.202C143.868 220.148 143.57 219.906 143.326 219.502C142.025 217.35 121.569 190.532 120.702 189.375C120.702 189.375 120.702 189.375 120.675 189.348L118.236 186.362L143.922 178.535L144.925 178.508L171.722 186.201C167.197 192.307 146.008 219.448 145.9 219.637ZM175.705 375.115C178.604 372.559 182.424 370.972 186.624 370.972C190.824 370.972 194.671 372.559 197.57 375.142C197.76 375.142 197.381 375.142 197.57 375.142C198.139 375.491 198.464 375.976 198.925 376.487C198.79 376.487 199.061 376.487 198.925 376.487C201.499 379.365 203.098 383.158 203.098 387.3C203.098 396.312 195.728 403.628 186.651 403.628C177.574 403.628 170.177 396.312 170.177 387.3C170.177 383.131 171.776 379.338 174.377 376.433L175.705 375.115ZM207.216 318.841C208.381 318.572 209.573 318.438 210.82 318.438C219.761 318.438 227.023 325.647 227.023 334.524C227.023 343.401 219.761 350.61 210.82 350.61C209.573 350.61 208.381 350.448 207.216 350.206C206.783 350.072 206.322 349.937 205.861 349.856C199.331 347.785 194.59 341.706 194.59 334.551C194.59 327.395 199.331 321.316 205.861 319.245" fill="#47454B"/>
<path d="M167.197 333.851C160.152 333.851 154.435 339.553 154.435 346.52C154.435 353.487 160.179 359.19 167.197 359.19C174.214 359.19 179.958 353.514 179.958 346.52C179.958 339.526 174.241 333.851 167.197 333.851ZM167.197 357.872C160.883 357.872 155.762 352.788 155.762 346.52C155.762 340.253 160.883 335.169 167.197 335.169C173.51 335.169 178.631 340.253 178.631 346.52C178.631 352.788 173.51 357.872 167.197 357.872Z" fill="#47454B"/>
<path d="M186.759 396.876C187.003 396.876 187.247 396.876 187.491 396.849C187.87 396.822 188.141 396.499 188.114 396.15C188.087 395.8 187.762 395.531 187.41 395.531C179.091 396.042 177.926 386.735 177.899 386.358C177.845 386.009 177.547 385.74 177.141 385.766C176.761 385.82 176.517 386.143 176.545 386.52C176.545 386.6 177.818 396.876 186.759 396.876Z" fill="#47454B"/>
<path d="M210.089 343.561C210.143 343.561 210.522 343.642 211.118 343.642C212.256 343.642 214.18 343.4 216.05 342.082C218.353 340.441 219.816 337.617 220.385 333.716C220.439 333.34 220.168 333.017 219.816 332.963C219.436 332.882 219.111 333.151 219.057 333.528C218.542 337.052 217.269 339.553 215.291 340.979C212.961 342.674 210.387 342.243 210.36 342.243C210.007 342.19 209.655 342.432 209.574 342.781C209.493 343.131 209.736 343.481 210.089 343.561Z" fill="#47454B"/>
</svg>
